# xmcd
#
# Track frame offsets:
#	150
#	18952
#	42048
#	61168
#	78073
#	93809
#	109729
#	136458
#	152316
#	170904
#	193302
#	212148
#
# Disc length: 3077 seconds
#
# Revision: 0
# Processed by: cddbd v1.4PL0 Copyright (c) Steve Scherf et al.
# Submitted via: EasyCDDAExtractor 4.6.9.1
#
DISCID=930c030c
DTITLE=Jonny Lang - Lie to me
DYEAR=1996
DGENRE=Blues
TTITLE0=Lie to me
TTITLE1=Darker side
TTITLE2=Good morning little school girl
TTITLE3=Still wonder
TTITLE4=Matchbox
TTITLE5=Back for a taste of your love
TTITLE6=A quitter never wins
TTITLE7=Hit the ground running
TTITLE8=Rack'em up
TTITLE9=When i come to you
TTITLE10=There's gotta be a change
TTITLE11=Missing your love
EXTD=
EXTT0=
EXTT1=
EXTT2=
EXTT3=
EXTT4=
EXTT5=
EXTT6=
EXTT7=
EXTT8=
EXTT9=
EXTT10=
EXTT11=
PLAYORDER=
